<svg preserveAspectRatio="none" width="100%" height="100%" overflow="visible" style="display: block;" viewBox="0 0 65 65" fill="none" xmlns="http://www.w3.org/2000/svg">
<g id="whatsapp-symbol-logo-svgrepo-com (1) 1" clip-path="url(#clip0_0_6)">
<path id="Vector" d="M55.4264 9.44584C49.3429 3.35815 41.2537 0.00371459 32.6351 3.57172e-07C14.8754 3.57172e-07 0.422468 14.4483 0.415358 32.2073C0.413289 37.884 1.89654 43.4253 4.71581 48.3099L0.144856 65L17.2249 60.5214C21.9308 63.0878 27.2293 64.4402 32.6213 64.4423H32.635H32.6351C50.3921 64.4423 64.8471 49.9915 64.8547 32.2334C64.8576 23.6265 61.5091 15.5339 55.4264 9.44584ZM32.6351 59.0024H32.6247C27.8186 58.9999 23.1055 57.7095 18.9946 55.2702L18.0163 54.6902L7.8806 57.3477L10.5867 47.4691L9.94927 46.4563C7.26839 42.1936 5.85311 37.2675 5.85512 32.2093C5.86101 17.4486 17.8737 5.44014 32.6453 5.44014C39.7985 5.44311 46.5216 8.23133 51.578 13.2912C56.6341 18.3511 59.4165 25.0775 59.4144 32.2311C59.4082 46.9923 47.395 59.0024 32.6351 59.0024Z" fill="var(--fill-0, #E0E0E0)"/>
<path id="Vector_2" d="M1.62392 63.1481L5.98608 47.2204C3.2949 42.5589 1.87967 37.2703 1.88137 31.8539C1.88842 14.9065 15.6812 1.11862 32.6283 1.11862C40.8535 1.12234 48.5734 4.32337 54.3777 10.1331C60.1833 15.9428 63.3785 23.6652 63.3752 31.878C63.3681 48.8258 49.5745 62.6149 32.6295 62.6149C32.6304 62.6149 32.6283 62.6149 32.6295 62.6149H32.6158C27.4702 62.6133 22.4141 61.3216 17.9235 58.8742L1.62392 63.1481Z" fill="url(#paint0_linear_0_6)"/>
<path id="Vector_3" fill-rule="evenodd" clip-rule="evenodd" d="M24.6733 18.5337C24.0772 17.2084 23.4496 17.1819 22.8825 17.1587C22.4187 17.1388 21.8876 17.14 21.3574 17.14C20.8268 17.14 19.9646 17.3394 19.2354 18.1358C18.5059 18.9321 16.4498 20.8572 16.4498 24.7725C16.4498 28.6882 19.3018 32.4717 19.6993 33.0031C20.0973 33.5337 25.2048 41.8252 33.2936 45.0151C40.0161 47.666 41.3841 47.1387 42.8432 47.0061C44.3024 46.8734 47.5515 45.0814 48.2148 43.223C48.878 41.365 48.878 39.7724 48.6791 39.4395C48.4801 39.1079 47.9495 38.9089 47.1536 38.511C46.3577 38.113 42.4453 36.1875 41.7157 35.9222C40.9861 35.6569 40.4555 35.5242 39.9249 36.321C39.3943 37.1169 37.87 38.9089 37.4058 39.4395C36.9415 39.9713 36.4772 40.0377 35.6813 39.6397C34.8854 39.2405 32.3223 38.4011 29.2817 35.69C26.916 33.5808 25.3187 30.9759 24.8545 30.1792C24.3902 29.3833 24.8047 28.9522 25.2039 28.5554C25.5612 28.1989 25.9998 27.6264 26.3978 27.1617C26.7949 26.697 26.9275 26.3654 27.1928 25.8348C27.4581 25.3033 27.3255 24.8387 27.1265 24.4407C26.9275 24.0428 25.3809 20.1073 24.6733 18.5337Z" fill="var(--fill-0, white)"/>
<path id="Vector_4" d="M55.1632 9.34348C49.1495 3.32568 41.1532 0.00981656 32.6337 0.00604926C15.0777 0.00604926 0.790708 14.2885 0.783651 31.8436C0.781582 37.4552 2.2478 42.9329 5.0347 47.7614L0.516279 64.2599L17.4003 59.8326C22.0522 62.3695 27.2899 63.7064 32.62 63.7085H32.6335H32.6337C50.1867 63.7085 64.4758 49.4236 64.4832 31.8693C64.4862 23.3614 61.1761 15.3617 55.1632 9.34348ZM32.6337 58.3312H32.6233C27.8723 58.3287 23.2133 57.0532 19.1497 54.6418L18.1825 54.0685L8.1632 56.6954L10.8382 46.9302L10.2081 45.9291C7.558 41.7154 6.15895 36.8458 6.16102 31.8457C6.1668 17.2545 18.0416 5.38384 32.6436 5.38384C39.7148 5.38676 46.3606 8.14299 51.3591 13.1448C56.3571 18.1466 59.1076 24.7957 59.1055 31.8673C59.0992 46.4589 47.224 58.3312 32.6337 58.3312Z" fill="var(--fill-0, white)"/>
</g>
<defs>
<linearGradient id="paint0_linear_0_6" x1="32.4996" y1="63.1481" x2="32.4996" y2="1.11873" gradientUnits="userSpaceOnUse">
<stop stop-color="#20B038"/>
<stop offset="1" stop-color="#60D66A"/>
</linearGradient>
<clipPath id="clip0_0_6">
<rect width="65" height="65" fill="white"/>
</clipPath>
</defs>
</svg>
